<svg width="113" height="123" viewBox="0 0 113 123" fill="none" xmlns="http://www.w3.org/2000/svg">
<g id="Finger" clip-path="url(#clip0_1_524)">
<path id="Vector" d="M72.3345 32.1345C72.7193 32.2395 73.1041 32.3445 73.5005 32.4527C75.9139 33.1884 78.1714 34.203 80.4516 35.2754C80.7407 35.4105 81.0298 35.5456 81.3277 35.6847C83.3195 36.6469 85.0842 37.7913 86.8658 39.0974C87.1538 39.2941 87.4418 39.4908 87.7385 39.6934C89.9774 41.2224 91.9143 42.935 93.8287 44.8494C94.1124 45.0753 94.3961 45.3013 94.6884 45.5341C95.6474 46.328 96.4011 47.2385 97.1398 48.2362C97.2701 48.4093 97.4004 48.5824 97.5347 48.7607C97.9169 49.2712 98.2955 49.7842 98.6724 50.2986C98.9598 50.6902 98.9598 50.6902 99.2531 51.0897C99.7801 51.8266 100.29 52.5718 100.792 53.326C100.994 53.6307 101.197 53.9355 101.406 54.2495C102.66 56.2027 103.621 58.1112 104.4 60.2971C104.678 61.0635 104.992 61.7721 105.352 62.5026C108.29 69.0664 109.186 78.0023 106.846 84.8103C106.342 85.9103 105.744 86.8627 105.03 87.8377C104.859 88.0851 104.689 88.3325 104.513 88.5874C101.882 92.1657 98.6695 94.2336 94.4341 95.406C94.245 95.4613 94.0558 95.5166 93.8609 95.5735C88.9757 96.9228 83.9694 95.856 79.5635 93.5151C75.5782 91.0872 72.972 87.9846 71.4263 83.5994C71.3182 83.3235 71.2101 83.0476 71.0988 82.7633C70.7335 81.4749 70.6681 80.2196 70.5749 78.8881C70.2522 75.1858 69.4568 71.9446 66.5826 69.3709C66.3754 69.1812 66.1681 68.9916 65.9546 68.7962C63.362 66.7097 59.8161 65.8658 56.5167 66.0408C53.4897 66.4608 50.6669 67.2323 48.4185 69.3709C48.2066 69.5707 47.9947 69.7705 47.7764 69.9763C45.481 72.3349 44.6434 74.9232 44.6173 78.1941C44.623 78.5168 44.6286 78.8394 44.6343 79.1719C44.638 79.5137 44.6417 79.8555 44.6454 80.2077C44.8454 88.819 47.9608 98.1285 54.2592 104.255C54.7759 104.791 54.7759 104.791 54.7759 105.396C54.9757 105.396 55.1755 105.396 55.3814 105.396C55.7338 105.821 56.0852 106.247 56.4315 106.677C61.1023 112.075 68.5221 115.484 75.2495 117.434C77.0324 117.974 77.0324 117.974 77.7838 118.679C78.1448 119.446 78.3486 119.982 78.3892 120.836C77.9219 122.027 77.648 122.541 76.5728 123.258C74.4921 123.336 72.4684 122.725 70.5181 122.066C70.2453 121.974 69.9724 121.883 69.6912 121.788C67.0815 120.871 64.732 119.601 62.3673 118.18C61.4712 117.65 60.5575 117.155 59.6425 116.659C57.8515 115.621 56.296 114.252 54.757 112.878C54.2117 112.396 53.6541 111.933 53.092 111.47C51.1658 109.818 49.6372 107.777 48.0708 105.794C47.6195 105.23 47.1563 104.688 46.6778 104.147C45.9977 103.278 45.5445 102.45 45.0766 101.458C44.8116 100.909 44.5071 100.379 44.1992 99.8524C42.2573 96.4579 41.0994 92.7654 39.942 89.0486C39.8343 88.7122 39.7265 88.3758 39.6156 88.0293C38.0537 82.3791 37.9301 75.1809 40.8211 70.0052C42.7222 66.7514 42.7222 66.7514 44.1613 65.5489C44.3576 65.3826 44.5539 65.2164 44.7561 65.0451C44.9657 64.8742 45.1753 64.7032 45.3912 64.5271C45.6222 64.3285 45.8532 64.1299 46.0912 63.9252C50.0852 60.9355 55.0326 59.92 59.9224 60.2888C61.0799 60.4893 62.149 60.7983 63.2525 61.1971C63.503 61.2813 63.7536 61.3656 64.0117 61.4525C68.8685 63.2186 72.5069 66.5506 74.7564 71.1873C75.7361 73.4781 76.2624 75.5632 76.3424 78.0621C76.4549 81.1841 77.0051 83.6009 79.2454 85.9077C79.6002 86.324 79.6002 86.324 79.6002 86.9295C79.8566 87.0518 79.8566 87.0518 80.1181 87.1766C80.8467 87.5533 81.5206 87.9822 82.2112 88.4242C85.598 90.4346 89.1743 90.7574 93.0234 90.0822C96.5199 89.0805 99.1751 86.8829 101.002 83.7744C103.853 78.1417 101.982 70.8732 100.186 65.1326C98.7371 60.7245 96.513 56.5758 93.5259 53.0232C93.1093 52.4938 92.693 51.964 92.2772 51.4339C90.8348 49.6399 89.2464 48.1217 87.4713 46.6658C87.0709 46.3333 87.0709 46.3333 86.6624 45.9941C76.2482 37.6416 63.694 35.0373 50.5755 36.2593C43.7869 37.0163 35.3979 39.9735 30.1563 44.4769C29.3463 45.1521 29.3463 45.1521 28.7408 45.1521C28.7408 45.3519 28.7408 45.5517 28.7408 45.7576C28.2961 46.1289 28.2961 46.1289 27.6812 46.5523C26.274 47.571 25.1005 48.7492 23.897 49.9959C23.5312 50.3529 23.5312 50.3529 23.1579 50.7172C15.8546 58.1878 12.4841 68.9731 12.5895 79.2668C12.7976 86.2704 14.1583 93.3854 16.6965 99.921C16.983 101.047 16.8833 101.846 16.6314 102.974C16.1584 103.712 16.1584 103.712 15.4205 104.185C14.2951 104.389 13.38 104.424 12.3925 103.806C11.3185 102.866 11.0431 101.554 10.5956 100.231C10.4908 99.9249 10.386 99.619 10.278 99.3037C9.11332 95.7582 8.4245 92.1254 7.85211 88.4431C7.79597 88.0913 7.73982 87.7395 7.68197 87.377C7.25612 84.4976 7.12557 81.6787 7.13312 78.7746C7.13322 78.4304 7.13322 78.4304 7.13331 78.0793C7.1494 72.2657 7.9288 66.6609 9.97125 61.1971C10.0393 61.0088 10.1073 60.8206 10.1773 60.6266C12.2337 55.0367 15.9188 50.0799 19.9615 45.7576C20.2007 45.5008 20.4399 45.244 20.6864 44.9795C34.0049 31.2178 54.2811 27.1943 72.3345 32.1345Z" fill="#434C5A"/>
<path id="Vector_2" d="M81.4547 54.3474C87.6476 60.1057 91.7 67.4881 92.3153 76.0308C92.3352 76.2919 92.3551 76.5529 92.3756 76.8219C92.432 78.1335 92.4472 78.8428 91.7477 79.9853C90.7701 80.8766 90.7701 80.8766 89.8757 80.8698C89.6381 80.8464 89.4004 80.823 89.1555 80.7989C88.9187 80.7786 88.6818 80.7583 88.4377 80.7374C87.6478 80.5402 87.3623 80.3008 86.8661 79.6636C86.5113 78.5992 86.5076 77.7019 86.4688 76.5795C86.2 71.7327 84.702 68.0406 82.3154 63.8702C82.0224 63.316 82.0224 63.316 81.7196 62.4077C81.5198 62.4077 81.32 62.4077 81.1142 62.4077C80.6979 61.9075 80.6979 61.9075 80.206 61.2157C76.4204 56.2335 70.9164 53.5857 65.0692 51.812C64.8367 51.7398 64.6041 51.6677 64.3644 51.5933C59.183 50.2163 53.4427 50.8324 48.4189 52.4175C48.2209 52.4787 48.0229 52.5399 47.8189 52.603C41.2692 54.6785 35.2066 59.2808 31.9679 65.4169C30.2314 68.8768 29.0038 72.2579 28.9824 76.1585C28.9798 76.5301 28.9798 76.5301 28.9771 76.9092C28.9743 77.4343 28.9723 77.9595 28.9711 78.4847C28.9682 79.27 28.9588 80.055 28.9492 80.8403C28.9165 85.9593 29.7914 90.5695 31.4657 95.4058C31.5682 95.7121 31.5682 95.7121 31.6727 96.0246C32.6818 99.0276 33.9707 101.523 35.704 104.185C36.0124 104.705 36.3159 105.228 36.6122 105.756C36.7308 105.966 36.8495 106.176 36.9717 106.393C37.2177 106.91 37.2177 106.91 37.2177 107.515C37.4175 107.515 37.6173 107.515 37.8231 107.515C38.1251 107.97 38.4044 108.441 38.6746 108.915C39.776 110.717 41.1145 112.183 42.5857 113.692C43.8778 115.027 43.8778 115.027 43.8778 115.689C44.0776 115.689 44.2774 115.689 44.4833 115.689C44.4833 115.889 44.4833 116.089 44.4833 116.294C44.783 116.394 45.0827 116.494 45.3915 116.597C46.1783 117.712 46.6024 118.314 46.6024 119.681C46.2433 120.691 45.9643 121.122 45.0888 121.744C44.1049 122.103 44.1049 122.103 42.9696 122.046C42.0369 121.466 41.3124 120.71 40.5478 119.927C40.3288 119.719 40.1099 119.51 39.8843 119.296C38.1337 117.609 36.5932 115.787 35.0985 113.873C34.9101 113.636 34.7216 113.399 34.5274 113.155C26.2503 102.31 21.4346 87.7931 23.1287 74.0902C23.8941 69.5924 25.3193 65.3218 27.8329 61.4995C27.9718 61.2689 28.1108 61.0383 28.2539 60.8007C30.2524 57.579 33.1133 54.8332 36.0067 52.4175C36.2362 52.2197 36.4657 52.0218 36.7021 51.818C40.8836 48.4821 46.2012 46.5475 51.4462 45.7574C51.7856 45.7037 51.7856 45.7037 52.1318 45.649C62.9599 43.9982 73.2406 47.192 81.4547 54.3474Z" fill="#434C5A"/>
<path id="Vector_3" d="M78.0867 18.2085C78.3098 18.2734 78.5328 18.3382 78.7626 18.405C85.8654 20.5184 92.4587 24.0728 98.3699 28.5015C98.5736 28.6463 98.7774 28.7911 98.9872 28.9402C103.412 32.1175 107.47 36.309 110.782 40.6109C110.996 40.877 111.211 41.1432 111.431 41.4174C112.886 43.3164 112.886 43.3164 112.958 44.8113C112.567 45.8405 112.278 46.3253 111.388 46.9683C110.388 47.363 109.999 47.3224 108.998 46.9127C107.987 46.3219 107.463 45.7711 106.752 44.8492C106.401 44.4043 106.401 44.4043 106.044 43.9504C105.692 43.4962 105.692 43.4962 105.333 43.0328C103.176 40.2951 100.906 37.4405 98.0104 35.4455C97.7295 35.2519 97.4485 35.0584 97.159 34.8589C97.159 34.6591 97.159 34.4593 97.159 34.2535C96.9877 34.1735 96.8164 34.0935 96.6399 34.011C95.8976 33.6215 95.2471 33.1728 94.5668 32.683C89.9088 29.4021 84.9868 26.5793 79.5711 24.7605C79.0131 24.5721 78.4588 24.3729 77.9046 24.1734C75.3074 23.2876 72.6852 22.7248 69.9886 22.2198C69.6482 22.1559 69.3078 22.0921 68.957 22.0264C65.3636 21.3832 61.8278 21.1794 58.181 21.1798C57.5614 21.1791 56.942 21.1736 56.3224 21.1679C53.542 21.1559 50.8673 21.4067 48.116 21.8414C47.809 21.8872 47.502 21.933 47.1857 21.9802C43.4519 22.5491 39.8578 23.2637 36.3094 24.566C36.0831 24.647 35.8568 24.728 35.6237 24.8115C29.8135 26.9162 24.2176 29.7357 19.4615 33.7142C18.7508 34.2535 18.7508 34.2535 18.1453 34.2535C18.1453 34.4533 18.1453 34.6531 18.1453 34.8589C17.7245 35.2231 17.2854 35.5662 16.8398 35.8996C14.3602 37.8376 12.0782 40.0032 10.3109 42.6201C10.1989 42.7563 10.0869 42.8924 9.97151 43.0328C9.7717 43.0328 9.5719 43.0328 9.36604 43.0328C9.28448 43.2068 9.20292 43.3809 9.11889 43.5602C8.75306 44.258 8.3426 44.8617 7.87129 45.4925C7.7187 45.6993 7.56612 45.9061 7.40891 46.1192C6.73836 46.9075 6.20863 47.2442 5.18452 47.4035C3.82081 47.2163 3.36271 46.7393 2.40315 45.7574C2.08149 45.1708 2.08149 45.1708 2.10042 44.5464C3.86628 40.655 7.04281 37.5922 9.97151 34.5562C10.2318 34.2834 10.4921 34.0106 10.7603 33.7296C11.9383 32.5172 11.9383 32.5172 12.3934 32.1343C12.5932 32.1343 12.793 32.1343 12.9989 32.1343C12.9989 31.9345 12.9989 31.7347 12.9989 31.5289C17.4037 27.3879 22.9753 24.1656 28.4005 21.5765C28.7401 21.4143 28.7401 21.4143 29.0866 21.2488C35.4108 18.3083 42.399 16.4719 49.327 15.7867C49.5753 15.759 49.8237 15.7314 50.0795 15.7029C59.4716 14.7266 69.0377 15.5701 78.0867 18.2085Z" fill="#434C5A"/>
<path id="Vector_4" d="M57.6896 0.291202C58.0326 0.291627 58.0326 0.291627 58.3825 0.292061C61.7626 0.301137 65.0598 0.405682 68.3988 0.953433C68.7098 1.00065 69.0207 1.04787 69.3411 1.09652C73.8952 1.79347 78.226 2.71625 82.5453 4.32993C83.1831 4.56771 83.8234 4.79507 84.4662 5.01906C86.9045 5.88244 89.2719 6.90071 91.6337 7.95417C91.9224 8.08131 92.2112 8.20846 92.5087 8.33946C92.7803 8.46285 93.0519 8.58624 93.3318 8.71337C93.5737 8.82229 93.8155 8.93122 94.0647 9.04345C95.0912 9.63391 95.7723 10.3513 96.3828 11.3599C96.5531 12.1546 96.5531 12.1546 96.2125 13.1007C95.6565 13.9532 95.3328 14.4169 94.434 14.8792C92.5981 15.1338 91.289 14.3253 89.7037 13.5169C84.9443 11.1788 80.2246 9.29215 75.0606 8.06488C74.5512 7.94024 74.0458 7.79947 73.5417 7.65498C58.9499 3.5011 40.8737 5.91529 27.4303 12.6513C27.1494 12.7907 26.8685 12.9302 26.5791 13.0738C26.026 13.3508 25.4756 13.6332 24.9284 13.9216C23.203 14.7873 22.1537 15.0703 20.264 14.5765C19.3791 13.8021 19.1032 13.3246 18.8828 12.1735C19.1069 10.9533 19.663 10.2407 20.5668 9.43C21.4947 8.87718 22.4653 8.46272 23.4617 8.04877C23.7132 7.9397 23.9647 7.83063 24.2238 7.71825C25.0206 7.37451 25.8207 7.03976 26.6215 6.70539C26.9087 6.58253 27.1959 6.45968 27.4918 6.3331C32.9549 4.01298 38.5183 2.22457 44.3959 1.35846C45.0141 1.26712 45.6308 1.16538 46.2472 1.06223C50.053 0.430935 53.8396 0.28501 57.6896 0.291202Z" fill="#434C5A"/>
<path id="Vector_5" d="M59.013 76.0308C60.0677 77.0555 60.0973 78.1935 60.205 79.5879C60.9491 86.9486 63.9317 93.7637 69.6336 98.6613C75.1514 102.909 80.8163 104.547 87.6782 104.526C88.2246 104.527 88.2246 104.527 88.7821 104.529C90.8371 104.527 92.8426 104.441 94.8833 104.191C95.7383 104.184 96.1493 104.317 96.8548 104.791C97.4878 105.751 97.7584 106.38 97.7819 107.534C97.3539 108.717 96.7184 109.335 95.6439 109.937C93.1573 110.684 90.6503 110.664 88.0755 110.656C87.8521 110.656 87.6286 110.655 87.3984 110.655C84.0434 110.64 80.9673 110.473 77.7825 109.332C77.5495 109.253 77.3164 109.175 77.0763 109.095C72.492 107.54 67.8109 105.335 64.765 101.46C64.4279 101.159 64.0822 100.866 63.7243 100.59C62.5435 99.6061 61.6994 98.4817 60.8294 97.2222C60.687 97.0239 60.5445 96.8257 60.3978 96.6214C58.3388 93.6689 56.5042 90.4513 55.6829 86.9292C55.5629 86.4943 55.5629 86.4943 55.4405 86.0506C54.9403 84.1325 54.6544 82.2417 54.5098 80.269C54.4913 80.0517 54.4727 79.8343 54.4535 79.6103C54.3748 78.2343 54.532 77.425 55.3802 76.3335C56.674 75.2194 57.4811 75.3783 59.013 76.0308Z" fill="#434C5A"/>
</g>
<defs>
<clipPath id="clip0_1_524">
<rect width="113" height="123" fill="white"/>
</clipPath>
</defs>
</svg>
